<?xml version="1.0"?>
<svg xmlns="http://www.w3.org/2000/svg" id="Capa_1" enable-background="new 0 0 512 512" height="512px" viewBox="0 0 512 512" width="512px"><g><g><path d="m104.752 82.667h120.091c4.142 0 7.5-3.358 7.5-7.5s-3.358-7.5-7.5-7.5h-120.091c-4.142 0-7.5 3.358-7.5 7.5s3.358 7.5 7.5 7.5z" data-original="#000000" class="active-path" data-old_color="#000000" fill="#00AF80"/><path d="m104.752 121.903h120.091c4.142 0 7.5-3.358 7.5-7.5s-3.358-7.5-7.5-7.5h-120.091c-4.142 0-7.5 3.358-7.5 7.5s3.358 7.5 7.5 7.5z" data-original="#000000" class="active-path" data-old_color="#000000" fill="#00AF80"/><path d="m350.634 187.583h-245.882c-4.142 0-7.5 3.358-7.5 7.5s3.358 7.5 7.5 7.5h245.881c4.143 0 7.5-3.358 7.5-7.5s-3.357-7.5-7.499-7.5z" data-original="#000000" class="active-path" data-old_color="#000000" fill="#00AF80"/><path d="m358.134 251.436c0-4.142-3.357-7.5-7.5-7.5h-245.882c-4.142 0-7.5 3.358-7.5 7.5s3.358 7.5 7.5 7.5h245.881c4.143 0 7.501-3.358 7.501-7.5z" data-original="#000000" class="active-path" data-old_color="#000000" fill="#00AF80"/><path d="m328.347 307.788c0-4.142-3.357-7.5-7.5-7.5h-216.095c-4.142 0-7.5 3.358-7.5 7.5s3.358 7.5 7.5 7.5h216.095c4.143 0 7.5-3.358 7.5-7.5z" data-original="#000000" class="active-path" data-old_color="#000000" fill="#00AF80"/><path d="m104.752 356.64c-4.142 0-7.5 3.358-7.5 7.5s3.358 7.5 7.5 7.5h135.844c4.142 0 7.5-3.358 7.5-7.5s-3.358-7.5-7.5-7.5z" data-original="#000000" class="active-path" data-old_color="#000000" fill="#00AF80"/><path d="m365.157 357.417c-28.568 0-51.81 23.242-51.81 51.81s23.241 51.809 51.81 51.809 51.81-23.241 51.81-51.809-23.242-51.81-51.81-51.81zm0 88.618c-20.297 0-36.81-16.513-36.81-36.809 0-20.297 16.513-36.81 36.81-36.81s36.81 16.513 36.81 36.81c0 20.296-16.513 36.809-36.81 36.809z" data-original="#000000" class="active-path" data-old_color="#000000" fill="#00AF80"/><path d="m448.731 384.891c-1.795 0-3.395-1.152-3.979-2.865-1.141-3.34-2.51-6.644-4.068-9.816-.806-1.643-.494-3.6.777-4.871 7.485-7.486 7.485-19.667 0-27.153l-7.262-7.262c-7.486-7.486-19.668-7.486-27.156.002-1.27 1.271-3.224 1.581-4.868.774-3.173-1.558-6.476-2.926-9.816-4.067-1.714-.586-2.866-2.185-2.866-3.979 0-10.587-8.613-19.2-19.2-19.2h-10.27c-10.587 0-19.2 8.613-19.2 19.2 0 1.794-1.152 3.394-2.866 3.979-3.341 1.142-6.644 2.51-9.816 4.067-1.645.807-3.599.495-4.87-.776-7.486-7.486-19.668-7.486-27.154 0l-7.262 7.262c-7.485 7.486-7.485 19.667.002 27.155 1.27 1.27 1.581 3.226.773 4.869-1.559 3.176-2.927 6.479-4.065 9.815-.586 1.715-2.186 2.867-3.98 2.867-10.587 0-19.2 8.613-19.2 19.2v10.27c0 10.587 8.613 19.2 19.2 19.2 1.795 0 3.395 1.152 3.979 2.865 1.14 3.337 2.508 6.64 4.067 9.818.807 1.642.495 3.598-.774 4.868-.02.02-.039.04-.06.061-3.59 3.62-5.565 8.417-5.565 13.518 0 5.128 1.997 9.95 5.623 13.577l7.262 7.262c7.486 7.486 19.668 7.486 27.156-.002 1.271-1.269 3.225-1.579 4.868-.774 3.173 1.558 6.476 2.926 9.816 4.067 1.714.586 2.866 2.185 2.866 3.979 0 10.587 8.613 19.2 19.2 19.2h10.27c10.587 0 19.2-8.613 19.2-19.2 0-1.794 1.152-3.394 2.866-3.979 3.341-1.142 6.644-2.51 9.817-4.067 1.643-.806 3.6-.495 4.869.776 7.486 7.486 19.668 7.486 27.154 0l7.262-7.262c3.626-3.626 5.623-8.448 5.623-13.577 0-5.101-1.976-9.898-5.564-13.517-.021-.021-.041-.041-.061-.062-1.27-1.27-1.581-3.226-.775-4.867 1.559-3.175 2.928-6.478 4.067-9.817.586-1.715 2.186-2.867 3.98-2.867 10.587 0 19.2-8.613 19.2-19.2v-10.27c0-10.588-8.613-19.201-19.2-19.201zm4.2 29.47c0 2.316-1.884 4.2-4.2 4.2-8.21 0-15.514 5.231-18.175 13.018-.936 2.739-2.059 5.449-3.338 8.056-3.621 7.376-2.183 16.216 3.573 22.024.021.021.041.042.062.063.793.793 1.229 1.848 1.229 2.969 0 1.122-.437 2.177-1.23 2.97l-7.262 7.262c-1.638 1.638-4.304 1.637-5.941-.002-5.81-5.808-14.685-7.266-22.085-3.633-2.604 1.278-5.314 2.401-8.057 3.338-7.786 2.66-13.017 9.963-13.017 18.174 0 2.316-1.884 4.2-4.2 4.2h-10.27c-2.316 0-4.2-1.884-4.2-4.2 0-8.21-5.23-15.514-13.017-18.174-2.742-.937-5.452-2.06-8.057-3.338-2.713-1.333-5.624-1.98-8.51-1.98-4.986 0-9.897 1.935-13.577 5.614-1.637 1.638-4.303 1.638-5.939 0l-7.262-7.262c-.794-.793-1.23-1.848-1.23-2.97s.437-2.176 1.229-2.969c.021-.021.041-.042.062-.062 5.758-5.809 7.195-14.649 3.573-22.025-1.279-2.607-2.402-5.318-3.338-8.057-2.66-7.785-9.964-13.016-18.174-13.016-2.316 0-4.2-1.884-4.2-4.2v-10.27c0-2.316 1.884-4.2 4.2-4.2 8.21 0 15.514-5.231 18.175-13.018.935-2.738 2.058-5.448 3.337-8.054 3.635-7.403 2.175-16.278-3.634-22.087-1.638-1.638-1.638-4.303 0-5.94l7.262-7.262c1.637-1.638 4.303-1.637 5.941.002 5.808 5.808 14.686 7.265 22.085 3.633 2.604-1.278 5.314-2.401 8.057-3.338 7.786-2.66 13.017-9.963 13.017-18.174 0-2.316 1.884-4.2 4.2-4.2h10.27c2.316 0 4.2 1.884 4.2 4.2 0 8.21 5.23 15.514 13.017 18.174 2.742.937 5.452 2.06 8.056 3.338 7.403 3.634 16.279 2.174 22.088-3.634 1.637-1.638 4.303-1.638 5.939 0l7.262 7.262c1.638 1.638 1.638 4.303-.002 5.942-5.807 5.807-7.267 14.682-3.633 22.086 1.279 2.604 2.402 5.314 3.339 8.055 2.66 7.785 9.964 13.016 18.174 13.016 2.316 0 4.2 1.884 4.2 4.2v10.269z" data-original="#000000" class="active-path" data-old_color="#000000" fill="#00AF80"/><path d="m251.666 455.082h-175.857c-9.23 0-16.74-7.51-16.74-16.74v-406.602c0-9.23 7.51-16.74 16.74-16.74h219.354v81.088c0 14.235 11.581 25.815 25.815 25.815h81.088v182.847c0 4.142 3.357 7.5 7.5 7.5s7.5-3.358 7.5-7.5v-190.347c0-1.989-.79-3.897-2.196-5.303l-106.903-106.903c-1.408-1.407-3.315-2.197-5.304-2.197h-226.854c-17.501 0-31.74 14.239-31.74 31.74v406.602c0 17.501 14.239 31.74 31.74 31.74h175.857c4.142 0 7.5-3.358 7.5-7.5s-3.358-7.5-7.5-7.5zm58.497-358.994v-70.482l81.297 81.297h-70.481c-5.965 0-10.816-4.851-10.816-10.815z" data-original="#000000" class="active-path" data-old_color="#000000" fill="#00AF80"/></g></g> </svg>
